<?xml version="1.0" standalone="no"?>
<!DOCTYPE svg PUBLIC "-//W3C//DTD SVG 20010904//EN"
 "http://www.w3.org/TR/2001/REC-SVG-20010904/DTD/svg10.dtd">
<svg version="1.0" xmlns="http://www.w3.org/2000/svg"
 width="1500.000000pt" height="1500.000000pt" viewBox="0 0 1500.000000 1500.000000"
 preserveAspectRatio="xMidYMid meet">
<metadata>
Created by potrace 1.16, written by Peter Selinger 2001-2019
</metadata>
<g transform="translate(0.000000,1500.000000) scale(0.100000,-0.100000)"
fill="#000000" stroke="none">
<path d="M5330 8737 c0 -2 -76 -227 -170 -501 -93 -274 -170 -500 -170 -502 0
-2 26 -4 59 -4 l58 0 39 125 38 125 191 0 191 0 40 -125 39 -125 58 0 c31 0
57 3 57 8 0 4 -76 230 -169 502 l-169 495 -46 3 c-25 2 -46 1 -46 -1z m125
-408 c41 -128 73 -235 71 -236 -2 -2 -71 -2 -154 -1 l-150 3 76 237 c41 131
77 236 79 234 3 -2 38 -109 78 -237z"/>
<path d="M5900 8235 l0 -505 55 0 55 0 2 390 3 390 225 -389 225 -390 53 -1
52 0 -2 503 -3 502 -55 0 -55 0 -5 -384 -5 -384 -224 386 -224 387 -48 0 -49
0 0 -505z"/>
<path d="M6787 8733 c-4 -3 -7 -28 -7 -55 l0 -48 229 0 230 0 -235 -410 c-198
-348 -234 -416 -234 -450 l0 -40 311 0 310 0 -3 53 -3 52 -241 3 -242 2 234
408 c203 354 234 413 234 450 l0 42 -288 0 c-159 0 -292 -3 -295 -7z"/>
<path d="M5215 7591 c-85 -22 -146 -83 -167 -165 -15 -63 -15 -334 0 -391 15
-52 64 -110 115 -137 81 -42 237 -18 293 43 16 18 16 20 -6 43 l-22 25 -40
-27 c-58 -38 -150 -43 -197 -10 -69 46 -76 72 -76 263 0 191 7 217 76 263 46
32 142 28 190 -8 l32 -23 23 29 c27 33 22 44 -39 73 -48 23 -137 34 -182 22z"/>
<path d="M8034 7591 c-51 -13 -112 -52 -138 -90 -36 -52 -45 -108 -46 -272 0
-165 13 -226 58 -276 110 -119 321 -99 394 39 22 41 23 54 23 243 0 189 -1
202 -23 243 -29 54 -89 98 -153 111 -55 12 -70 12 -115 2z m143 -91 c63 -38
68 -55 71 -255 3 -198 -3 -227 -60 -269 -39 -28 -132 -33 -178 -9 -65 34 -75
66 -78 258 -3 161 -2 172 20 215 15 29 35 51 58 62 47 24 126 23 167 -2z"/>
<path d="M8635 7586 c-61 -17 -127 -83 -147 -147 -8 -29 -13 -101 -13 -209 0
-194 11 -235 79 -298 74 -68 188 -77 294 -23 21 11 44 27 52 36 12 14 10 20
-13 43 l-26 26 -23 -21 c-49 -46 -146 -57 -208 -25 -64 35 -75 74 -75 267 0
193 11 232 76 267 48 27 142 21 188 -11 l33 -24 23 29 c13 16 21 32 18 37 -2
4 -26 18 -51 31 -61 31 -143 40 -207 22z"/>
<path d="M12135 7591 c-83 -21 -136 -72 -160 -153 -18 -60 -21 -340 -5 -399
44 -157 237 -215 385 -117 l46 31 -27 28 c-24 26 -29 27 -44 14 -53 -48 -166
-60 -220 -22 -62 42 -70 71 -70 262 0 142 3 176 18 205 40 80 143 104 235 55
l46 -24 21 26 c16 21 18 29 8 41 -34 40 -167 71 -233 53z"/>
<path d="M5610 7235 l0 -355 40 0 40 0 0 134 0 134 81 4 c46 2 84 -1 88 -7 4
-5 32 -67 61 -137 l53 -128 42 0 43 0 -63 148 -62 147 43 38 c74 66 92 173 43
269 -41 80 -115 108 -291 108 l-118 0 0 -355z m292 259 c59 -31 82 -105 54
-178 -25 -66 -53 -79 -168 -84 l-98 -4 0 139 c0 77 3 143 8 147 11 12 172 -4
204 -20z"/>
<path d="M6154 7543 c13 -27 60 -125 105 -220 l81 -172 0 -136 0 -135 40 0 40
0 0 133 0 133 105 218 c58 121 105 221 105 222 0 2 -19 4 -42 4 l-43 0 -79
-175 c-44 -96 -83 -172 -87 -168 -4 5 -42 83 -84 176 l-78 167 -44 0 -43 0 24
-47z"/>
<path d="M6730 7236 l0 -356 40 0 40 0 0 125 0 125 68 0 c184 0 291 95 280
249 -6 82 -46 146 -113 180 -44 23 -63 26 -182 29 l-133 4 0 -356z m285 255
c61 -34 84 -140 47 -210 -28 -53 -72 -71 -169 -71 l-83 0 0 148 c0 82 3 152 7
156 13 13 166 -5 198 -23z"/>
<path d="M7260 7555 l0 -34 98 -3 97 -3 3 -317 2 -318 40 0 40 0 0 320 0 320
100 0 100 0 0 35 0 35 -240 0 -240 0 0 -35z"/>
<path d="M9050 7322 c0 -310 5 -339 72 -396 106 -91 280 -59 339 60 23 48 24
57 27 327 l4 277 -41 0 -40 0 -3 -272 c-3 -238 -5 -277 -21 -305 -49 -90 -203
-82 -243 12 -11 27 -14 91 -14 300 l0 265 -40 0 -40 0 0 -268z"/>
<path d="M9640 7236 l0 -356 40 0 40 0 0 135 0 135 75 0 c41 0 78 1 83 2 4 1
32 -59 64 -133 l56 -134 42 -3 c50 -4 52 -16 -25 164 l-55 128 35 29 c57 47
78 97 73 182 -4 89 -36 142 -107 177 -40 20 -65 23 -183 26 l-138 4 0 -356z
m292 258 c38 -19 60 -68 60 -127 0 -95 -58 -137 -189 -137 l-83 0 0 138 c0 76
3 142 8 146 11 12 173 -4 204 -20z"/>
<path d="M10220 7236 l0 -356 40 0 40 0 0 134 0 134 80 4 80 3 46 -110 c26
-60 51 -122 56 -137 9 -25 15 -28 54 -28 l44 0 -13 33 c-8 17 -36 83 -62 145
l-48 113 35 32 c55 51 72 92 73 174 0 64 -3 76 -30 115 -17 23 -51 54 -75 68
-41 23 -58 25 -182 28 l-138 4 0 -356z m280 261 c63 -30 88 -125 52 -197 -25
-51 -70 -70 -169 -70 l-83 0 0 146 0 147 88 -7 c48 -4 98 -13 112 -19z"/>
<path d="M10790 7235 l0 -355 200 0 200 0 0 35 0 34 -157 3 -158 3 -3 128 -3
127 131 0 130 0 0 35 0 34 -127 3 -128 3 0 115 0 115 158 3 157 3 0 34 0 35
-200 0 -200 0 0 -355z"/>
<path d="M11340 7235 l0 -355 40 0 40 0 2 270 3 269 155 -269 155 -269 38 -1
37 0 0 355 0 355 -40 0 -40 0 0 -272 c-1 -235 -3 -270 -14 -255 -8 10 -81 133
-162 273 -146 252 -147 254 -180 254 l-34 0 0 -355z"/>
<path d="M12509 7528 c16 -35 63 -134 105 -222 l76 -159 0 -133 0 -134 40 0
40 0 0 134 0 134 56 118 c31 66 78 165 105 222 l48 102 -43 0 -43 0 -79 -175
c-43 -96 -81 -175 -84 -175 -3 0 -41 79 -84 175 l-80 175 -42 0 -43 0 28 -62z"/>
<path d="M970 7030 l0 -330 105 0 105 0 0 330 0 330 -105 0 -105 0 0 -330z"/>
<path d="M1190 7030 l0 -330 1675 0 1675 0 0 330 0 330 -1675 0 -1675 0 0
-330z"/>
<path d="M970 6200 l0 -330 1785 0 1785 0 0 330 0 330 -1785 0 -1785 0 0 -330z"/>
</g>
</svg>
