<?xml version="1.0" encoding="UTF-8"?>
<svg xmlns="http://www.w3.org/2000/svg" xmlns:xlink="http://www.w3.org/1999/xlink" width="612pt" height="792pt" viewBox="0 0 612 792" version="1.1">
<defs>
<clipPath id="clip1">
  <path d="M 216 373 L 257 373 L 257 417 L 216 417 Z M 216 373 "/>
</clipPath>
<clipPath id="clip2">
  <path d="M 242.707031 374.367188 C 239.835938 376.054688 238.140625 379.09375 238.140625 382.308594 C 238.140625 383.996094 238.816406 385.691406 239.664063 387.210938 C 240.34375 388.5625 240.675781 390.929688 238.3125 392.109375 C 236.625 393.121094 234.421875 392.445313 233.410156 390.757813 C 232.398438 389.402344 231.21875 388.050781 229.691406 387.039063 C 226.820313 385.351563 223.4375 385.351563 220.566406 387.039063 C 217.695313 388.726563 216 391.777344 216 394.988281 C 216 398.203125 217.6875 401.242188 220.566406 402.933594 C 223.4375 404.621094 226.820313 404.621094 229.691406 402.933594 C 231.21875 402.085938 232.398438 400.738281 233.238281 399.214844 C 233.914063 398.03125 235.773438 396.507813 238.140625 397.859375 C 239.828125 398.871094 240.335938 401.074219 239.492188 402.761719 C 238.644531 404.285156 238.140625 405.972656 238.140625 407.660156 C 238.140625 410.875 239.828125 413.914063 242.707031 415.605469 C 245.578125 417.292969 248.960938 417.292969 251.832031 415.605469 C 254.703125 413.914063 256.398438 410.875 256.398438 407.660156 C 256.398438 404.449219 254.710938 401.40625 251.832031 399.71875 C 250.308594 398.871094 248.617188 398.535156 246.761719 398.535156 C 245.234375 398.535156 243.214844 397.523438 243.214844 394.988281 C 243.214844 392.960938 244.738281 391.441406 246.761719 391.441406 C 248.449219 391.441406 250.308594 391.109375 251.832031 390.257813 C 254.703125 388.570313 256.398438 385.53125 256.398438 382.316406 C 256.398438 379.105469 254.710938 376.0625 251.832031 374.375 C 250.480469 373.527344 248.789063 373.191406 247.265625 373.191406 C 245.75 373.183594 244.050781 373.527344 242.707031 374.367188 Z M 242.707031 374.367188 Z M 242.707031 374.367188 "/>
</clipPath>
<clipPath id="clip3">
  <path d="M 242.707031 374.367188 C 239.835938 376.054688 238.140625 379.09375 238.140625 382.308594 C 238.140625 383.996094 238.816406 385.691406 239.664063 387.210938 C 240.34375 388.5625 240.675781 390.929688 238.3125 392.109375 C 236.625 393.121094 234.421875 392.445313 233.410156 390.757813 C 232.398438 389.402344 231.21875 388.050781 229.691406 387.039063 C 226.820313 385.351563 223.4375 385.351563 220.566406 387.039063 C 217.695313 388.726563 216 391.777344 216 394.988281 C 216 398.203125 217.6875 401.242188 220.566406 402.933594 C 223.4375 404.621094 226.820313 404.621094 229.691406 402.933594 C 231.21875 402.085938 232.398438 400.738281 233.238281 399.214844 C 233.914063 398.03125 235.773438 396.507813 238.140625 397.859375 C 239.828125 398.871094 240.335938 401.074219 239.492188 402.761719 C 238.644531 404.285156 238.140625 405.972656 238.140625 407.660156 C 238.140625 410.875 239.828125 413.914063 242.707031 415.605469 C 245.578125 417.292969 248.960938 417.292969 251.832031 415.605469 C 254.703125 413.914063 256.398438 410.875 256.398438 407.660156 C 256.398438 404.449219 254.710938 401.40625 251.832031 399.71875 C 250.308594 398.871094 248.617188 398.535156 246.761719 398.535156 C 245.234375 398.535156 243.214844 397.523438 243.214844 394.988281 C 243.214844 392.960938 244.738281 391.441406 246.761719 391.441406 C 248.449219 391.441406 250.308594 391.109375 251.832031 390.257813 C 254.703125 388.570313 256.398438 385.53125 256.398438 382.316406 C 256.398438 379.105469 254.710938 376.0625 251.832031 374.375 C 250.480469 373.527344 248.789063 373.191406 247.265625 373.191406 C 245.75 373.183594 244.050781 373.527344 242.707031 374.367188 Z M 242.707031 374.367188 L 242.707031 374.367188 "/>
</clipPath>
<linearGradient id="linear0" gradientUnits="userSpaceOnUse" x1="216" y1="396.969" x2="256.399" y2="396.969" gradientTransform="matrix(1,0,0,-1,0,792)">
<stop offset="0" style="stop-color:rgb(6.666565%,66.665649%,88.626099%);stop-opacity:1;"/>
<stop offset="0.00390625" style="stop-color:rgb(6.469727%,66.468811%,88.42926%);stop-opacity:1;"/>
<stop offset="0.0078125" style="stop-color:rgb(6.274414%,66.273499%,88.233948%);stop-opacity:1;"/>
<stop offset="0.015625" style="stop-color:rgb(6.274414%,66.273499%,88.233948%);stop-opacity:1;"/>
<stop offset="0.0234375" style="stop-color:rgb(6.274414%,66.273499%,88.233948%);stop-opacity:1;"/>
<stop offset="0.0273438" style="stop-color:rgb(6.274414%,66.07666%,88.037109%);stop-opacity:1;"/>
<stop offset="0.03125" style="stop-color:rgb(6.274414%,65.881348%,87.841797%);stop-opacity:1;"/>
<stop offset="0.046875" style="stop-color:rgb(6.274414%,65.881348%,87.841797%);stop-opacity:1;"/>
<stop offset="0.0507813" style="stop-color:rgb(6.274414%,65.684509%,87.644958%);stop-opacity:1;"/>
<stop offset="0.0546875" style="stop-color:rgb(6.274414%,65.489197%,87.449646%);stop-opacity:1;"/>
<stop offset="0.0625" style="stop-color:rgb(6.274414%,65.489197%,87.449646%);stop-opacity:1;"/>
<stop offset="0.0703125" style="stop-color:rgb(6.274414%,65.489197%,87.449646%);stop-opacity:1;"/>
<stop offset="0.0742188" style="stop-color:rgb(6.274414%,65.292358%,87.252808%);stop-opacity:1;"/>
<stop offset="0.078125" style="stop-color:rgb(6.274414%,65.097046%,87.057495%);stop-opacity:1;"/>
<stop offset="0.09375" style="stop-color:rgb(6.274414%,65.097046%,87.057495%);stop-opacity:1;"/>
<stop offset="0.0976563" style="stop-color:rgb(6.274414%,64.900208%,86.860657%);stop-opacity:1;"/>
<stop offset="0.101563" style="stop-color:rgb(6.274414%,64.704895%,86.665344%);stop-opacity:1;"/>
<stop offset="0.109375" style="stop-color:rgb(6.274414%,64.704895%,86.665344%);stop-opacity:1;"/>
<stop offset="0.117188" style="stop-color:rgb(6.143188%,64.704895%,86.665344%);stop-opacity:1;"/>
<stop offset="0.125" style="stop-color:rgb(5.94635%,64.512634%,86.473083%);stop-opacity:1;"/>
<stop offset="0.140625" style="stop-color:rgb(5.882263%,64.315796%,86.276245%);stop-opacity:1;"/>
<stop offset="0.148438" style="stop-color:rgb(5.882263%,64.13269%,86.09314%);stop-opacity:1;"/>
<stop offset="0.15625" style="stop-color:rgb(5.882263%,63.937378%,85.897827%);stop-opacity:1;"/>
<stop offset="0.171875" style="stop-color:rgb(5.882263%,63.920593%,85.714722%);stop-opacity:1;"/>
<stop offset="0.175781" style="stop-color:rgb(5.882263%,63.723755%,85.519409%);stop-opacity:1;"/>
<stop offset="0.179687" style="stop-color:rgb(5.882263%,63.528442%,85.488892%);stop-opacity:1;"/>
<stop offset="0.1875" style="stop-color:rgb(5.882263%,63.528442%,85.488892%);stop-opacity:1;"/>
<stop offset="0.195313" style="stop-color:rgb(5.882263%,63.528442%,85.336304%);stop-opacity:1;"/>
<stop offset="0.199219" style="stop-color:rgb(5.882263%,63.331604%,85.139465%);stop-opacity:1;"/>
<stop offset="0.203125" style="stop-color:rgb(5.882263%,63.136292%,85.096741%);stop-opacity:1;"/>
<stop offset="0.21875" style="stop-color:rgb(5.882263%,63.136292%,84.95636%);stop-opacity:1;"/>
<stop offset="0.222656" style="stop-color:rgb(5.87616%,62.939453%,84.761047%);stop-opacity:1;"/>
<stop offset="0.226562" style="stop-color:rgb(5.871582%,62.744141%,84.70459%);stop-opacity:1;"/>
<stop offset="0.234375" style="stop-color:rgb(5.680847%,62.744141%,84.70459%);stop-opacity:1;"/>
<stop offset="0.242188" style="stop-color:rgb(5.490112%,62.744141%,84.577942%);stop-opacity:1;"/>
<stop offset="0.25" style="stop-color:rgb(5.490112%,62.554932%,84.381104%);stop-opacity:1;"/>
<stop offset="0.265625" style="stop-color:rgb(5.490112%,62.359619%,84.197998%);stop-opacity:1;"/>
<stop offset="0.273437" style="stop-color:rgb(5.490112%,62.176514%,84.002686%);stop-opacity:1;"/>
<stop offset="0.28125" style="stop-color:rgb(5.490112%,61.979675%,83.920288%);stop-opacity:1;"/>
<stop offset="0.289063" style="stop-color:rgb(5.490112%,61.959839%,83.81958%);stop-opacity:1;"/>
<stop offset="0.296875" style="stop-color:rgb(5.490112%,61.79657%,83.622742%);stop-opacity:1;"/>
<stop offset="0.3125" style="stop-color:rgb(5.490112%,61.601257%,83.439636%);stop-opacity:1;"/>
<stop offset="0.320313" style="stop-color:rgb(5.490112%,61.418152%,83.244324%);stop-opacity:1;"/>
<stop offset="0.328125" style="stop-color:rgb(5.490112%,61.221313%,83.135986%);stop-opacity:1;"/>
<stop offset="0.335938" style="stop-color:rgb(5.490112%,61.175537%,83.061218%);stop-opacity:1;"/>
<stop offset="0.34375" style="stop-color:rgb(5.490112%,61.175537%,82.86438%);stop-opacity:1;"/>
<stop offset="0.347656" style="stop-color:rgb(5.293274%,60.978699%,82.743835%);stop-opacity:1;"/>
<stop offset="0.351563" style="stop-color:rgb(5.097961%,60.783386%,82.743835%);stop-opacity:1;"/>
<stop offset="0.359375" style="stop-color:rgb(5.097961%,60.783386%,82.681274%);stop-opacity:1;"/>
<stop offset="0.375" style="stop-color:rgb(5.097961%,60.598755%,82.485962%);stop-opacity:1;"/>
<stop offset="0.382813" style="stop-color:rgb(5.097961%,60.401917%,82.302856%);stop-opacity:1;"/>
<stop offset="0.390625" style="stop-color:rgb(5.097961%,60.391235%,82.106018%);stop-opacity:1;"/>
<stop offset="0.398438" style="stop-color:rgb(5.097961%,60.218811%,81.959534%);stop-opacity:1;"/>
<stop offset="0.40625" style="stop-color:rgb(5.097961%,60.023499%,81.922913%);stop-opacity:1;"/>
<stop offset="0.421875" style="stop-color:rgb(5.097961%,59.840393%,81.7276%);stop-opacity:1;"/>
<stop offset="0.429688" style="stop-color:rgb(5.097961%,59.643555%,81.544495%);stop-opacity:1;"/>
<stop offset="0.4375" style="stop-color:rgb(5.097961%,59.606934%,81.347656%);stop-opacity:1;"/>
<stop offset="0.445312" style="stop-color:rgb(5.097961%,59.460449%,81.175232%);stop-opacity:1;"/>
<stop offset="0.453125" style="stop-color:rgb(5.097961%,59.265137%,81.164551%);stop-opacity:1;"/>
<stop offset="0.460937" style="stop-color:rgb(5.026245%,59.214783%,80.969238%);stop-opacity:1;"/>
<stop offset="0.46875" style="stop-color:rgb(4.829407%,59.082031%,80.783081%);stop-opacity:1;"/>
<stop offset="0.484375" style="stop-color:rgb(4.705811%,58.885193%,80.725098%);stop-opacity:1;"/>
<stop offset="0.5" style="stop-color:rgb(4.705811%,58.642578%,80.528259%);stop-opacity:1;"/>
<stop offset="0.507813" style="stop-color:rgb(4.705811%,58.44574%,80.345154%);stop-opacity:1;"/>
<stop offset="0.515625" style="stop-color:rgb(4.705811%,58.430481%,80.149841%);stop-opacity:1;"/>
<stop offset="0.519531" style="stop-color:rgb(4.705811%,58.094788%,79.663086%);stop-opacity:1;"/>
<stop offset="0.523438" style="stop-color:rgb(4.705811%,57.76062%,79.328918%);stop-opacity:1;"/>
<stop offset="0.527344" style="stop-color:rgb(4.508972%,57.246399%,79.01001%);stop-opacity:1;"/>
<stop offset="0.53125" style="stop-color:rgb(4.31366%,56.732178%,78.692627%);stop-opacity:1;"/>
<stop offset="0.535156" style="stop-color:rgb(4.31366%,56.311035%,78.178406%);stop-opacity:1;"/>
<stop offset="0.539063" style="stop-color:rgb(4.31366%,55.891418%,77.664185%);stop-opacity:1;"/>
<stop offset="0.542969" style="stop-color:rgb(4.15802%,55.479431%,77.149963%);stop-opacity:1;"/>
<stop offset="0.546875" style="stop-color:rgb(4.003906%,55.067444%,76.635742%);stop-opacity:1;"/>
<stop offset="0.550781" style="stop-color:rgb(3.942871%,54.553223%,76.141357%);stop-opacity:1;"/>
<stop offset="0.554687" style="stop-color:rgb(3.881836%,54.039001%,75.646973%);stop-opacity:1;"/>
<stop offset="0.558594" style="stop-color:rgb(3.704834%,53.605652%,75.308228%);stop-opacity:1;"/>
<stop offset="0.5625" style="stop-color:rgb(3.529358%,53.172302%,74.971008%);stop-opacity:1;"/>
<stop offset="0.566406" style="stop-color:rgb(3.529358%,52.772522%,74.456787%);stop-opacity:1;"/>
<stop offset="0.570313" style="stop-color:rgb(3.529358%,52.374268%,73.942566%);stop-opacity:1;"/>
<stop offset="0.574219" style="stop-color:rgb(3.33252%,51.860046%,73.428345%);stop-opacity:1;"/>
<stop offset="0.578125" style="stop-color:rgb(3.137207%,51.345825%,72.914124%);stop-opacity:1;"/>
<stop offset="0.582031" style="stop-color:rgb(3.137207%,50.898743%,72.399902%);stop-opacity:1;"/>
<stop offset="0.585938" style="stop-color:rgb(3.137207%,50.453186%,71.885681%);stop-opacity:1;"/>
<stop offset="0.589844" style="stop-color:rgb(2.95105%,50.138855%,71.627808%);stop-opacity:1;"/>
<stop offset="0.59375" style="stop-color:rgb(2.766418%,49.82605%,71.37146%);stop-opacity:1;"/>
<stop offset="0.609375" style="stop-color:rgb(2.755737%,49.813843%,71.37146%);stop-opacity:1;"/>
<stop offset="0.613281" style="stop-color:rgb(2.745056%,49.606323%,71.174622%);stop-opacity:1;"/>
<stop offset="0.617188" style="stop-color:rgb(2.745056%,49.411011%,70.979309%);stop-opacity:1;"/>
<stop offset="0.625" style="stop-color:rgb(2.745056%,49.411011%,70.979309%);stop-opacity:1;"/>
<stop offset="0.632813" style="stop-color:rgb(2.745056%,49.411011%,70.906067%);stop-opacity:1;"/>
<stop offset="0.636719" style="stop-color:rgb(2.745056%,49.214172%,70.710754%);stop-opacity:1;"/>
<stop offset="0.640625" style="stop-color:rgb(2.745056%,49.01886%,70.587158%);stop-opacity:1;"/>
<stop offset="0.65625" style="stop-color:rgb(2.745056%,49.012756%,70.581055%);stop-opacity:1;"/>
<stop offset="0.671875" style="stop-color:rgb(2.745056%,48.817444%,70.385742%);stop-opacity:1;"/>
<stop offset="0.679688" style="stop-color:rgb(2.745056%,48.626709%,70.06073%);stop-opacity:1;"/>
<stop offset="0.683594" style="stop-color:rgb(2.745056%,48.429871%,69.863892%);stop-opacity:1;"/>
<stop offset="0.6875" style="stop-color:rgb(2.745056%,48.234558%,69.802856%);stop-opacity:1;"/>
<stop offset="0.695313" style="stop-color:rgb(2.655029%,48.234558%,69.802856%);stop-opacity:1;"/>
<stop offset="0.703125" style="stop-color:rgb(2.458191%,48.234558%,69.735718%);stop-opacity:1;"/>
<stop offset="0.707031" style="stop-color:rgb(2.352905%,48.03772%,69.538879%);stop-opacity:1;"/>
<stop offset="0.710937" style="stop-color:rgb(2.352905%,47.842407%,69.410706%);stop-opacity:1;"/>
<stop offset="0.71875" style="stop-color:rgb(2.352905%,47.842407%,69.410706%);stop-opacity:1;"/>
<stop offset="0.722656" style="stop-color:rgb(2.352905%,47.842407%,69.213867%);stop-opacity:1;"/>
<stop offset="0.726562" style="stop-color:rgb(2.352905%,47.842407%,69.018555%);stop-opacity:1;"/>
<stop offset="0.730469" style="stop-color:rgb(2.352905%,47.645569%,69.018555%);stop-opacity:1;"/>
<stop offset="0.734375" style="stop-color:rgb(2.352905%,47.450256%,69.018555%);stop-opacity:1;"/>
<stop offset="0.75" style="stop-color:rgb(2.352905%,47.450256%,68.888855%);stop-opacity:1;"/>
<stop offset="0.753906" style="stop-color:rgb(2.352905%,47.253418%,68.693542%);stop-opacity:1;"/>
<stop offset="0.757813" style="stop-color:rgb(2.352905%,47.058105%,68.626404%);stop-opacity:1;"/>
<stop offset="0.765625" style="stop-color:rgb(2.352905%,47.058105%,68.626404%);stop-opacity:1;"/>
<stop offset="0.769531" style="stop-color:rgb(2.352905%,47.058105%,68.429565%);stop-opacity:1;"/>
<stop offset="0.773438" style="stop-color:rgb(2.352905%,47.058105%,68.234253%);stop-opacity:1;"/>
<stop offset="0.777344" style="stop-color:rgb(2.352905%,46.861267%,68.234253%);stop-opacity:1;"/>
<stop offset="0.78125" style="stop-color:rgb(2.352905%,46.665955%,68.234253%);stop-opacity:1;"/>
<stop offset="0.789063" style="stop-color:rgb(2.352905%,46.665955%,68.217468%);stop-opacity:1;"/>
<stop offset="0.796875" style="stop-color:rgb(2.16217%,46.665955%,68.02063%);stop-opacity:1;"/>
<stop offset="0.800781" style="stop-color:rgb(1.965332%,46.469116%,67.842102%);stop-opacity:1;"/>
<stop offset="0.804688" style="stop-color:rgb(1.960754%,46.273804%,67.842102%);stop-opacity:1;"/>
<stop offset="0.8125" style="stop-color:rgb(1.960754%,46.273804%,67.842102%);stop-opacity:1;"/>
<stop offset="0.816406" style="stop-color:rgb(1.960754%,46.273804%,67.645264%);stop-opacity:1;"/>
<stop offset="0.820313" style="stop-color:rgb(1.960754%,46.273804%,67.449951%);stop-opacity:1;"/>
<stop offset="0.824219" style="stop-color:rgb(1.960754%,46.076965%,67.449951%);stop-opacity:1;"/>
<stop offset="0.828125" style="stop-color:rgb(1.960754%,45.881653%,67.449951%);stop-opacity:1;"/>
<stop offset="0.835938" style="stop-color:rgb(1.960754%,45.881653%,67.370605%);stop-opacity:1;"/>
<stop offset="0.84375" style="stop-color:rgb(1.960754%,45.825195%,67.175293%);stop-opacity:1;"/>
<stop offset="0.859375" style="stop-color:rgb(1.960754%,45.629883%,67.045593%);stop-opacity:1;"/>
<stop offset="0.867188" style="stop-color:rgb(1.960754%,45.489502%,66.850281%);stop-opacity:1;"/>
<stop offset="0.871094" style="stop-color:rgb(1.960754%,45.292664%,66.665649%);stop-opacity:1;"/>
<stop offset="0.875" style="stop-color:rgb(1.960754%,45.097351%,66.665649%);stop-opacity:1;"/>
<stop offset="0.882812" style="stop-color:rgb(1.960754%,45.097351%,66.525269%);stop-opacity:1;"/>
<stop offset="0.890625" style="stop-color:rgb(1.960754%,45.097351%,66.329956%);stop-opacity:1;"/>
<stop offset="0.894531" style="stop-color:rgb(1.864624%,44.900513%,66.273499%);stop-opacity:1;"/>
<stop offset="0.898437" style="stop-color:rgb(1.77002%,44.7052%,66.273499%);stop-opacity:1;"/>
<stop offset="0.90625" style="stop-color:rgb(1.669312%,44.7052%,66.200256%);stop-opacity:1;"/>
<stop offset="0.914062" style="stop-color:rgb(1.568604%,44.654846%,66.004944%);stop-opacity:1;"/>
<stop offset="0.921875" style="stop-color:rgb(1.568604%,44.458008%,65.881348%);stop-opacity:1;"/>
<stop offset="0.925781" style="stop-color:rgb(1.568604%,44.313049%,65.684509%);stop-opacity:1;"/>
<stop offset="0.929687" style="stop-color:rgb(1.568604%,44.313049%,65.489197%);stop-opacity:1;"/>
<stop offset="0.9375" style="stop-color:rgb(1.568604%,44.313049%,65.489197%);stop-opacity:1;"/>
<stop offset="0.941406" style="stop-color:rgb(1.568604%,44.116211%,65.489197%);stop-opacity:1;"/>
<stop offset="0.945313" style="stop-color:rgb(1.568604%,43.920898%,65.489197%);stop-opacity:1;"/>
<stop offset="0.949219" style="stop-color:rgb(1.568604%,43.786621%,65.220642%);stop-opacity:1;"/>
<stop offset="0.953125" style="stop-color:rgb(1.568604%,43.652344%,64.952087%);stop-opacity:1;"/>
<stop offset="0.957031" style="stop-color:rgb(1.371765%,43.170166%,64.520264%);stop-opacity:1;"/>
<stop offset="0.960938" style="stop-color:rgb(1.176453%,42.687988%,64.08844%);stop-opacity:1;"/>
<stop offset="0.964844" style="stop-color:rgb(1.176453%,42.233276%,63.522339%);stop-opacity:1;"/>
<stop offset="0.96875" style="stop-color:rgb(1.176453%,41.78009%,62.957764%);stop-opacity:1;"/>
<stop offset="0.972656" style="stop-color:rgb(0.979614%,41.213989%,62.519836%);stop-opacity:1;"/>
<stop offset="0.976563" style="stop-color:rgb(0.784302%,40.649414%,62.083435%);stop-opacity:1;"/>
<stop offset="0.980469" style="stop-color:rgb(0.738525%,40.234375%,61.584473%);stop-opacity:1;"/>
<stop offset="0.984375" style="stop-color:rgb(0.694275%,39.819336%,61.08551%);stop-opacity:1;"/>
<stop offset="0.988281" style="stop-color:rgb(0.543213%,39.299011%,60.519409%);stop-opacity:1;"/>
<stop offset="0.992188" style="stop-color:rgb(0.392151%,38.778687%,59.954834%);stop-opacity:1;"/>
<stop offset="0.996094" style="stop-color:rgb(0.195313%,38.407898%,59.584045%);stop-opacity:1;"/>
<stop offset="1" style="stop-color:rgb(0%,38.038635%,59.214783%);stop-opacity:1;"/>
</linearGradient>
</defs>
<g id="surface1">
<path style=" stroke:none;fill-rule:evenodd;fill:rgb(27.830505%,30.200195%,33.325195%);fill-opacity:1;" d="M 281.570313 389.746094 C 281.066406 389.574219 280.046875 389.410156 279.035156 389.410156 C 275.996094 389.410156 272.78125 391.777344 272.78125 394.816406 L 272.78125 409.1875 L 265.851563 409.1875 L 265.851563 383.660156 L 272.4375 383.660156 L 272.4375 386.199219 C 273.964844 384.339844 276.835938 383.15625 279.875 383.15625 C 280.886719 383.15625 281.402344 383.328125 282.242188 383.328125 Z M 289.351563 370.140625 C 291.71875 370.140625 293.746094 372 293.746094 374.535156 C 293.746094 377.074219 291.71875 378.933594 289.179688 378.933594 C 286.644531 378.933594 284.613281 377.074219 284.613281 374.535156 C 284.785156 372 286.816406 370.140625 289.351563 370.140625 Z M 292.726563 409.1875 L 285.796875 409.1875 L 285.796875 383.660156 L 292.726563 383.660156 Z M 313.007813 383.15625 C 310.140625 383.15625 307.601563 384.167969 305.570313 385.691406 L 305.570313 383.660156 L 298.8125 383.660156 L 298.8125 421.859375 L 305.742188 421.859375 L 305.742188 407.328125 C 307.773438 408.851563 309.96875 409.691406 312.675781 409.691406 C 316.394531 409.691406 320.113281 408.003906 322.304688 405.296875 C 324.335938 402.933594 325.519531 399.890625 325.519531 396.34375 C 325.519531 388.90625 319.941406 383.15625 313.007813 383.15625 Z M 312.167969 403.4375 C 307.945313 403.4375 305.074219 400.566406 305.074219 396.34375 C 305.074219 392.117188 307.945313 389.246094 312.167969 389.246094 C 315.886719 389.246094 318.757813 392.460938 318.757813 396.34375 C 318.757813 400.394531 315.714844 403.4375 312.167969 403.4375 Z M 360.332031 371.664063 L 367.261719 371.664063 L 367.261719 409.1875 L 360.332031 409.1875 Z M 395.152344 405.125 C 392.617188 407.996094 388.5625 409.691406 384.671875 409.691406 C 377.0625 409.691406 371.324219 404.457031 371.324219 396.34375 C 371.324219 389.246094 376.226563 382.992188 383.835938 382.992188 C 390.929688 382.992188 396 388.90625 396 396.007813 C 396 396.6875 396 397.363281 395.828125 398.039063 L 377.914063 398.039063 C 378.246094 401.585938 381.125 404.121094 384.84375 404.121094 C 387.714844 404.121094 390.078125 402.433594 391.269531 401.253906 Z M 388.726563 393.128906 C 388.554688 390.9375 386.53125 388.5625 383.652344 388.5625 C 380.773438 388.5625 378.417969 390.757813 378.246094 393.128906 Z M 343.769531 383.15625 C 340.898438 383.15625 338.363281 384.167969 336.332031 385.691406 L 336.332031 383.660156 L 329.742188 383.660156 L 329.742188 421.859375 L 336.675781 421.859375 L 336.675781 407.328125 C 338.703125 408.851563 340.898438 409.691406 343.605469 409.691406 C 347.324219 409.691406 351.042969 408.003906 353.238281 405.296875 C 355.265625 402.933594 356.449219 399.890625 356.449219 396.34375 C 356.277344 388.90625 350.699219 383.15625 343.769531 383.15625 Z M 342.929688 403.4375 C 338.703125 403.4375 335.835938 400.566406 335.835938 396.34375 C 335.835938 392.117188 338.703125 389.246094 342.929688 389.246094 C 346.648438 389.246094 349.519531 392.460938 349.519531 396.34375 C 349.519531 400.394531 346.476563 403.4375 342.929688 403.4375 "/>
<g clip-path="url(#clip1)" clip-rule="nonzero">
<g clip-path="url(#clip2)" clip-rule="evenodd">
<g clip-path="url(#clip3)" clip-rule="nonzero">
<path style=" stroke:none;fill-rule:nonzero;fill:url(#linear0);" d="M 216 417.292969 L 216 373.183594 L 256.398438 373.183594 L 256.398438 417.292969 Z M 216 417.292969 "/>
</g>
</g>
</g>
</g>
</svg>
